<svg width="100" height="100" viewBox="0 0 100 100" fill="none" xmlns="http://www.w3.org/2000/svg">
<path d="M79.2796 20.5851C71.8564 9.95257 57.1919 6.80131 46.5919 13.5601L27.9718 25.4352C25.4521 27.016 23.2901 29.1053 21.6241 31.5696C19.9581 34.0338 18.8248 36.8186 18.2967 39.7459C18.0612 41.0596 17.9414 42.3995 17.9392 43.7434C17.9505 47.3877 18.8432 50.9751 20.5411 54.1997C18.9494 56.6201 17.8633 59.3372 17.348 62.1879C16.8199 65.1679 16.8938 68.2568 17.5636 71.1954C18.2338 74.1534 19.4874 76.948 21.2511 79.4155C28.6749 90.0468 43.3725 93.1987 53.9388 86.4405L72.5401 74.5648C75.0582 72.9819 77.2174 70.8899 78.8791 68.4231C80.5408 65.9563 81.6682 63.1693 82.189 60.241C82.4282 58.924 82.5478 57.5882 82.5464 56.2497C82.5421 52.6124 81.6605 49.0298 79.9764 45.8059C81.568 43.3877 82.6547 40.673 83.1715 37.8246C83.4021 36.5058 83.5196 35.1715 83.5227 33.8333C83.5238 29.0868 82.0406 24.4588 79.2808 20.597L79.2796 20.5851Z" fill="#821e0c"/>
<path d="M44.7725 80.4142C43.5494 80.7294 42.3021 80.8887 41.0512 80.8892C38.6626 80.8889 36.3098 80.3095 34.1942 79.2006C32.0786 78.0917 30.2635 76.4864 28.9043 74.5223C27.2442 72.1992 26.3526 69.415 26.3543 66.5598C26.3553 65.7548 26.4251 64.952 26.5624 64.1641C26.6742 63.5712 26.8247 62.9899 27.0124 62.4254L27.363 61.3579L28.313 62.0804C30.5178 63.6996 32.9816 64.9326 35.5993 65.7266L36.2893 65.9348L36.2243 66.6248V66.9829C36.2228 67.8462 36.4911 68.6884 36.9918 69.3917C37.3961 69.9905 37.9407 70.4814 38.5781 70.8217C39.2307 71.1659 39.9355 71.3441 40.6481 71.3448C41.0242 71.3463 41.3994 71.2983 41.7668 71.2017C42.1657 71.0972 42.5511 70.9286 42.9125 70.7004L61.5126 58.7666C62.0704 58.4125 62.5294 57.9229 62.8468 57.3434C63.1641 56.7639 63.3296 56.1135 63.3276 55.4528C63.3222 54.5894 63.0468 53.7494 62.5401 53.0503C62.1295 52.4593 61.5821 51.9764 60.9445 51.6428C60.2915 51.3059 59.5881 51.1336 58.8776 51.1366C58.5014 51.1352 58.1263 51.1834 57.7588 51.2803C57.3616 51.3822 56.9783 51.5507 56.6201 51.7809L49.5288 56.3122C48.3353 57.0641 47.0642 57.6223 45.7487 57.9722C42.8193 58.7347 39.7264 58.5792 36.8883 57.5266C34.0502 56.4741 31.6038 54.5754 29.8799 52.0872C28.2219 49.7631 27.3304 46.9795 27.3299 44.1246C27.3311 43.3215 27.4011 42.5203 27.538 41.729C27.8562 39.9697 28.5363 38.2956 29.5354 36.8129C30.5345 35.3303 31.8307 34.0713 33.3418 33.1158L51.9619 21.247C53.1301 20.503 54.4047 19.941 55.7419 19.5801C56.9578 19.2686 58.208 19.1111 59.4632 19.1114C61.8567 19.106 64.2159 19.6814 66.3382 20.7882C68.4605 21.895 70.2826 23.5001 71.6483 25.4658C73.2965 27.7953 74.1768 30.581 74.1664 33.4346C74.1651 34.2419 74.0952 35.0469 73.9577 35.8371C73.8462 36.4297 73.6962 37.0109 73.5089 37.5752L73.1576 38.6427L72.2076 37.9465C70.0044 36.3248 67.5401 35.0916 64.9213 34.3002L64.2313 34.0858L64.2963 33.3952V33.0377C64.2962 32.1725 64.0281 31.3287 63.5288 30.6221C63.1188 30.0316 62.572 29.5491 61.9351 29.2158C61.2836 28.8789 60.5817 28.7059 59.8726 28.7077C59.4998 28.7157 59.1289 28.7725 58.7663 28.8771C58.3669 28.9774 57.9815 29.1462 57.6219 29.3783L39.0012 41.2471C38.5597 41.5228 38.1693 41.9034 37.8537 42.3659C37.5592 42.7977 37.3531 43.3065 37.2518 43.8515C37.2059 44.0779 37.1774 44.3089 37.1668 44.5415C37.1664 45.4027 37.4347 46.2426 37.9343 46.944C38.3439 47.5346 38.8906 48.0171 39.5275 48.3503C40.1791 48.6873 40.8813 48.86 41.5906 48.8578C41.9668 48.8591 42.3419 48.8109 42.7094 48.714C43.1089 48.6128 43.4946 48.4443 43.855 48.2134L50.9594 43.6559C52.1524 42.9027 53.4236 42.3444 54.7394 41.9959C55.9626 41.681 57.2098 41.5218 58.4607 41.5209C60.8496 41.5206 63.2031 42.0991 65.3197 43.2068C67.4363 44.3145 69.253 45.9185 70.6145 47.8815C71.6762 49.3693 72.4298 51.0544 72.8309 52.8376C73.232 54.6208 73.2725 56.4662 72.9501 58.2653C72.6338 60.0253 71.9544 61.7001 70.9551 63.183C69.9559 64.6659 68.6588 65.9245 67.1464 66.8785L48.5588 78.7473C47.3641 79.5027 46.0903 80.0633 44.7725 80.4142Z" fill="#fff5ec"/>
</svg>
