<svg width="80" height="80" viewBox="0 0 80 80" fill="none" xmlns="http://www.w3.org/2000/svg">
<path d="M11.7145 68.283C8.0003 64.5685 5.05412 60.1588 3.04414 55.3057C1.03417 50.4526 -0.000232091 45.2511 3.90606e-08 39.9982C0.000468847 29.3896 4.21519 19.2156 11.717 11.7145C19.2188 4.21335 29.3931 -0.000468769 40.0018 3.91137e-08C50.6104 0.000468847 60.7844 4.21519 68.2855 11.717C75.7866 19.2188 80.0005 29.3931 80 40.0018C79.9995 50.6104 75.7848 60.7844 68.283 68.2855C60.7812 75.7867 50.6069 80.0005 39.9982 80C29.3896 79.9995 19.2156 75.7848 11.7145 68.283ZM30.1482 24.8511C29.4369 24.1891 28.4967 23.8286 27.5252 23.8454C26.5537 23.8621 25.6265 24.2549 24.9386 24.9411C24.2524 25.629 23.8596 26.5562 23.8429 27.5277C23.8261 28.4992 24.1866 29.4394 24.8486 30.1507L34.6979 40L24.8486 49.8493C24.355 50.3076 23.9941 50.8906 23.8041 51.5368C23.614 52.183 23.6018 52.8685 23.7686 53.5211C23.9355 54.1737 24.2753 54.7691 24.7522 55.2448C25.2291 55.7205 25.8254 56.0587 26.4784 56.2239C27.1303 56.3909 27.8151 56.3793 28.4609 56.1901C29.1066 56.001 29.6895 55.6413 30.1482 55.1489L39.9975 45.2996L49.8468 55.1489C50.3051 55.6425 50.8881 56.0034 51.5343 56.1934C52.1805 56.3835 52.866 56.3957 53.5186 56.2289C54.1712 56.062 54.7666 55.7222 55.2423 55.2453C55.718 54.7684 56.0562 54.1721 56.2214 53.5191C56.3884 52.8672 56.3768 52.1824 56.1876 51.5366C55.9985 50.8909 55.6388 50.308 55.1464 49.8493L45.2971 40L55.1464 30.1507C55.64 29.6924 56.0009 29.1094 56.1909 28.4632C56.381 27.817 56.3932 27.1315 56.2264 26.4789C56.0595 25.8263 55.7197 25.2309 55.2428 24.7552C54.7659 24.2795 54.1696 23.9413 53.5166 23.7761C52.8647 23.6091 52.1799 23.6207 51.5341 23.8099C50.8884 23.999 50.3055 24.3587 49.8468 24.8511L39.9975 34.7004L30.1482 24.8511Z" fill="#0EA0C6"/>
</svg>
