<svg width="120" height="94" viewBox="0 0 120 94" fill="none" xmlns="http://www.w3.org/2000/svg">
<path d="M3.55566 5.55469C3.55566 4.45012 4.45109 3.55469 5.55566 3.55469H41.9153C42.3998 3.55469 42.8677 3.73052 43.2323 4.04953L56.3493 15.5269C56.6982 15.8322 57.1424 16.0068 57.6058 16.0209L113.664 17.7196C114.725 17.7517 115.576 18.6074 115.603 19.6687L117.282 86.838C117.31 87.9618 116.407 88.888 115.283 88.888H5.55566C4.45109 88.888 3.55566 87.9926 3.55566 86.888V5.55469Z" fill="#0EA0C6"/>
<path d="M10.7667 93.3333C7.7 93.3333 5.14 92.3067 3.08667 90.2533C1.02889 88.1956 0 85.6333 0 82.5667V10.7667C0 7.7 1.02889 5.14 3.08667 3.08667C5.14 1.02889 7.7 0 10.7667 0H43.9733L57.3067 13.3333H109.233C112.3 13.3333 114.86 14.3622 116.913 16.42C118.971 18.4733 120 21.0333 120 24.1V82.5667C120 85.6333 118.973 88.1933 116.92 90.2467C114.862 92.3045 112.3 93.3333 109.233 93.3333H10.7667ZM10.7667 86.6667H109.233C110.429 86.6667 111.411 86.2822 112.18 85.5133C112.949 84.7444 113.333 83.7622 113.333 82.5667V24.1C113.333 22.9044 112.949 21.9222 112.18 21.1533C111.411 20.3844 110.429 20 109.233 20H54.6333L41.3 6.66667H10.7667C9.57111 6.66667 8.58889 7.05111 7.82 7.82C7.05111 8.58889 6.66667 9.57111 6.66667 10.7667V82.5667C6.66667 83.7622 7.05111 84.7444 7.82 85.5133C8.58889 86.2822 9.57111 86.6667 10.7667 86.6667Z" fill="#007A9A"/>
<circle cx="60.4447" cy="53.3333" r="18.3333" fill="white" stroke="#007A9A" stroke-width="6"/>
<line x1="60.667" y1="44.4453" x2="60.667" y2="62.2231" stroke="#007A9A" stroke-width="6"/>
<line x1="51.5557" y1="53.1113" x2="69.3334" y2="53.1113" stroke="#007A9A" stroke-width="6"/>
</svg>
