<svg width="80" height="74" viewBox="0 0 80 74" fill="none" xmlns="http://www.w3.org/2000/svg">
<path d="M53.3226 14.0261C50.0553 10.7577 45.892 8.53198 41.3594 7.6306C36.8268 6.72922 32.1286 7.19269 27.8595 8.96235C23.5904 10.732 19.9422 13.7283 17.3766 17.5721C14.811 21.4159 13.4432 25.9344 13.4465 30.5557L13.4501 34.1491H6.26331V30.5557C6.26143 25.6846 7.42462 20.8836 9.6558 16.5535C11.887 12.2234 15.1215 8.48977 19.0893 5.66412C23.0571 2.83846 27.6432 1.00278 32.4649 0.310256C37.2865 -0.382266 42.2039 0.0884603 46.8066 1.68315C51.4093 3.27784 55.5639 5.95025 58.9236 9.47735C62.2833 13.0044 64.7506 17.2839 66.1198 21.9587C67.489 26.6335 67.7202 31.5679 66.7943 36.3502C65.8683 41.1325 63.8119 45.624 60.7968 49.4499L80 68.6566L74.9189 73.7377L55.7158 54.5309C50.3298 58.7834 43.666 61.0929 36.8037 61.0853H33.2103V53.8985H36.8037C41.4231 53.8982 45.9387 52.5282 49.7795 49.9617C53.6203 47.3951 56.6138 43.7473 58.3815 39.4796C60.1493 35.2118 60.6118 30.5156 59.7107 25.985C58.8096 21.4543 56.5852 17.2926 53.319 14.0261H53.3226ZM5.08108 40.4484L15.2432 50.6141L25.409 40.4484L30.49 45.533L20.3279 55.6952L30.49 65.8574L25.409 70.942L15.2432 60.7763L5.08108 70.942L0 65.8574L10.1622 55.6952L0 45.533L5.08108 40.4484Z" fill="#0EA0C6"/>
</svg>
