<svg width="80" height="80" viewBox="0 0 80 80" fill="none" xmlns="http://www.w3.org/2000/svg">
<path d="M4.44444 0H62.2222L78.6978 16.4756C79.5313 17.3089 79.9998 18.4391 80 19.6178V75.5556C80 76.7343 79.5318 77.8648 78.6983 78.6983C77.8648 79.5318 76.7343 80 75.5556 80H4.44444C3.2657 80 2.13524 79.5318 1.30175 78.6983C0.468252 77.8648 0 76.7343 0 75.5556V4.44444C0 3.2657 0.468252 2.13524 1.30175 1.30175C2.13524 0.468252 3.2657 0 4.44444 0ZM40 66.6667C43.5362 66.6667 46.9276 65.2619 49.4281 62.7614C51.9286 60.2609 53.3333 56.8696 53.3333 53.3333C53.3333 49.7971 51.9286 46.4057 49.4281 43.9052C46.9276 41.4048 43.5362 40 40 40C36.4638 40 33.0724 41.4048 30.5719 43.9052C28.0714 46.4057 26.6667 49.7971 26.6667 53.3333C26.6667 56.8696 28.0714 60.2609 30.5719 62.7614C33.0724 65.2619 36.4638 66.6667 40 66.6667ZM8.88889 8.88889V26.6667H53.3333V8.88889H8.88889Z" fill="#0EA0C6"/>
</svg>
