<svg width="80" height="80" viewBox="0 0 80 80" fill="none" xmlns="http://www.w3.org/2000/svg">
<path fill-rule="evenodd" clip-rule="evenodd" d="M1.38396 0.980172C1.98098 0.461554 2.71833 0.131559 3.50284 0.0318935C4.28735 -0.067772 5.0838 0.0673658 5.79153 0.420227L77.7845 36.4167C78.45 36.7484 79.0099 37.2591 79.4013 37.8914C79.7927 38.5238 80 39.2527 80 39.9963C80 40.74 79.7927 41.4689 79.4013 42.1012C79.0099 42.7336 78.45 43.2443 77.7845 43.576L5.79153 79.5725C5.08386 79.9266 4.28705 80.0628 3.50194 79.9639C2.71682 79.865 1.97869 79.5354 1.38094 79.0169C0.783187 78.4984 0.352687 77.8142 0.14391 77.0509C-0.0648668 76.2876 -0.0425353 75.4795 0.208078 74.7289L10.4551 43.996H32.001C33.0617 43.996 34.079 43.5746 34.8291 42.8245C35.5792 42.0744 36.0006 41.0571 36.0006 39.9963C36.0006 38.9356 35.5792 37.9183 34.8291 37.1682C34.079 36.4181 33.0617 35.9967 32.001 35.9967H10.4551L0.204078 5.26375C-0.0452443 4.51347 -0.0666092 3.70613 0.142682 2.94371C0.351973 2.18129 0.78653 1.49801 1.38396 0.980172Z" fill="#0EA0C6"/>
</svg>
